<svg xmlns="http://www.w3.org/2000/svg" viewBox="0 0 1440 320">
  <path fill="#f14668" fill-opacity="1" d="M0,160L26.7,170.7C53.3,181,107,203,160,218.7C213.3,235,267,245,320,261.3C373.3,277,427,299,480,288C533.3,277,587,235,640,213.3C693.3,192,747,192,800,202.7C853.3,213,907,235,960,202.7C1013.3,171,1067,85,1120,85.3C1173.3,85,1227,171,1280,197.3C1333.3,224,1387,192,1413,176L1440,160L1440,320L1413.3,320C1386.7,320,1333,320,1280,320C1226.7,320,1173,320,1120,320C1066.7,320,1013,320,960,320C906.7,320,853,320,800,320C746.7,320,693,320,640,320C586.7,320,533,320,480,320C426.7,320,373,320,320,320C266.7,320,213,320,160,320C106.7,320,53,320,27,320L0,320Z"></path>
</svg>
